# xmcd
#
# Track frame offsets:
# 150
# 16968
# 32161
# 50185
# 65275
# 81097
# 100346
# 121996
# 141253
# 159593
#
# Disc length: 2352 seconds
#
#
# Revision: 0
# Processed by: cddbd v1.5.1PL0 Copyright (c) Steve Scherf et al.
# Submitted via: FreeRIP 2.80 
#
DISCID=85092e0a
DTITLE=The Slenders - Rock Blues Country
DYEAR=2001
DGENRE=Country
TTITLE0=Texas When I Die
TTITLE1=Harper Valley
TTITLE2=Fire
TTITLE3=Lodi
TTITLE4=T Feek Lucky
TTITLE5=Cotton Fields
TTITLE6=Me And Bobby McGee
TTITLE7=Have You Ever Seen The Rain
TTITLE8=Wher'm I Gonna Live
TTITLE9=Get Over It
EXTD=
EXTT0=
EXTT1=
EXTT2=
EXTT3=
EXTT4=
EXTT5=
EXTT6=
EXTT7=
EXTT8=
EXTT9=
PLAYORDER=
